<svg width="182" height="182" viewBox="0 0 182 182" fill="none" xmlns="http://www.w3.org/2000/svg">
<g id="Mask group">
<mask id="mask0_0_440" style="mask-type:alpha" maskUnits="userSpaceOnUse" x="0" y="0" width="182" height="182">
<circle id="Ellipse 374" cx="91" cy="91" r="91" fill="#24272E" fill-opacity="0.66"/>
</mask>
<g mask="url(#mask0_0_440)">
<circle id="Ellipse 48" cx="4.14243" cy="6.70493" r="2.88462" fill="#24272E" fill-opacity="0.66"/>
<circle id="Ellipse 70" cx="4.14243" cy="22.7303" r="2.88462" fill="#24272E" fill-opacity="0.66"/>
<circle id="Ellipse 92" cx="4.14243" cy="38.1151" r="2.88462" fill="#24272E" fill-opacity="0.66"/>
<circle id="Ellipse 114" cx="4.14243" cy="53.4999" r="2.88462" fill="#24272E" fill-opacity="0.66"/>
<circle id="Ellipse 136" cx="4.14243" cy="69.5257" r="2.88462" fill="#24272E" fill-opacity="0.66"/>
<circle id="Ellipse 158" cx="4.14243" cy="84.9105" r="2.88462" fill="#24272E" fill-opacity="0.66"/>
<circle id="Ellipse 180" cx="4.14243" cy="100.295" r="2.88462" fill="#24272E" fill-opacity="0.66"/>
<circle id="Ellipse 202" cx="4.14243" cy="116.321" r="2.88462" fill="#24272E" fill-opacity="0.66"/>
<circle id="Ellipse 224" cx="4.14243" cy="131.705" r="2.88462" fill="#24272E" fill-opacity="0.66"/>
<circle id="Ellipse 246" cx="4.14243" cy="147.09" r="2.88462" fill="#24272E" fill-opacity="0.66"/>
<circle id="Ellipse 268" cx="4.14243" cy="163.116" r="2.88462" fill="#24272E" fill-opacity="0.66"/>
<circle id="Ellipse 290" cx="4.14243" cy="178.5" r="2.88462" fill="#24272E" fill-opacity="0.66"/>
<circle id="Ellipse 49" cx="15.6797" cy="6.70493" r="2.88462" fill="#24272E" fill-opacity="0.66"/>
<circle id="Ellipse 71" cx="15.6797" cy="22.7304" r="2.88462" fill="#24272E" fill-opacity="0.66"/>
<circle id="Ellipse 93" cx="15.6797" cy="38.1151" r="2.88462" fill="#24272E" fill-opacity="0.66"/>
<circle id="Ellipse 115" cx="15.6797" cy="53.4997" r="2.88462" fill="#24272E" fill-opacity="0.66"/>
<circle id="Ellipse 137" cx="15.6797" cy="69.5258" r="2.88462" fill="#24272E" fill-opacity="0.66"/>
<circle id="Ellipse 159" cx="15.6797" cy="84.9105" r="2.88462" fill="#24272E" fill-opacity="0.66"/>
<circle id="Ellipse 181" cx="15.6797" cy="100.295" r="2.88462" fill="#24272E" fill-opacity="0.66"/>
<circle id="Ellipse 203" cx="15.6797" cy="116.321" r="2.88462" fill="#24272E" fill-opacity="0.66"/>
<circle id="Ellipse 225" cx="15.6797" cy="131.705" r="2.88462" fill="#24272E" fill-opacity="0.66"/>
<circle id="Ellipse 247" cx="15.6797" cy="147.09" r="2.88462" fill="#24272E" fill-opacity="0.66"/>
<circle id="Ellipse 269" cx="15.6797" cy="163.116" r="2.88462" fill="#24272E" fill-opacity="0.66"/>
<circle id="Ellipse 291" cx="15.6797" cy="178.5" r="2.88462" fill="#24272E" fill-opacity="0.66"/>
<circle id="Ellipse 50" cx="26.576" cy="6.70493" r="2.88462" fill="#24272E" fill-opacity="0.66"/>
<circle id="Ellipse 72" cx="26.576" cy="22.7303" r="2.88462" fill="#24272E" fill-opacity="0.66"/>
<circle id="Ellipse 94" cx="26.576" cy="38.1151" r="2.88462" fill="#24272E" fill-opacity="0.66"/>
<circle id="Ellipse 116" cx="26.576" cy="53.4999" r="2.88462" fill="#24272E" fill-opacity="0.66"/>
<circle id="Ellipse 138" cx="26.576" cy="69.5257" r="2.88462" fill="#24272E" fill-opacity="0.66"/>
<circle id="Ellipse 160" cx="26.576" cy="84.9105" r="2.88462" fill="#24272E" fill-opacity="0.66"/>
<circle id="Ellipse 182" cx="26.576" cy="100.295" r="2.88462" fill="#24272E" fill-opacity="0.66"/>
<circle id="Ellipse 204" cx="26.576" cy="116.321" r="2.88462" fill="#24272E" fill-opacity="0.66"/>
<circle id="Ellipse 226" cx="26.576" cy="131.705" r="2.88462" fill="#24272E" fill-opacity="0.66"/>
<circle id="Ellipse 248" cx="26.576" cy="147.09" r="2.88462" fill="#24272E" fill-opacity="0.66"/>
<circle id="Ellipse 270" cx="26.576" cy="163.116" r="2.88462" fill="#24272E" fill-opacity="0.66"/>
<circle id="Ellipse 292" cx="26.576" cy="178.5" r="2.88462" fill="#24272E" fill-opacity="0.66"/>
<circle id="Ellipse 51" cx="38.1151" cy="6.70493" r="2.88462" fill="#24272E" fill-opacity="0.66"/>
<circle id="Ellipse 73" cx="38.1151" cy="22.7303" r="2.88462" fill="#24272E" fill-opacity="0.66"/>
<circle id="Ellipse 95" cx="38.1151" cy="38.1151" r="2.88462" fill="#24272E" fill-opacity="0.66"/>
<circle id="Ellipse 117" cx="38.1151" cy="53.4999" r="2.88462" fill="#24272E" fill-opacity="0.66"/>
<circle id="Ellipse 139" cx="38.1151" cy="69.5257" r="2.88462" fill="#24272E" fill-opacity="0.66"/>
<circle id="Ellipse 161" cx="38.1151" cy="84.9105" r="2.88462" fill="#24272E" fill-opacity="0.66"/>
<circle id="Ellipse 183" cx="38.1151" cy="100.295" r="2.88462" fill="#24272E" fill-opacity="0.66"/>
<circle id="Ellipse 205" cx="38.1151" cy="116.321" r="2.88462" fill="#24272E" fill-opacity="0.66"/>
<circle id="Ellipse 227" cx="38.1151" cy="131.705" r="2.88462" fill="#24272E" fill-opacity="0.66"/>
<circle id="Ellipse 249" cx="38.1151" cy="147.09" r="2.88462" fill="#24272E" fill-opacity="0.66"/>
<circle id="Ellipse 271" cx="38.1151" cy="163.116" r="2.88462" fill="#24272E" fill-opacity="0.66"/>
<circle id="Ellipse 293" cx="38.1151" cy="178.5" r="2.88462" fill="#24272E" fill-opacity="0.66"/>
<circle id="Ellipse 52" cx="49.0116" cy="6.70493" r="2.88462" fill="#24272E" fill-opacity="0.66"/>
<circle id="Ellipse 74" cx="49.0116" cy="22.7303" r="2.88462" fill="#24272E" fill-opacity="0.66"/>
<circle id="Ellipse 96" cx="49.0116" cy="38.1151" r="2.88462" fill="#24272E" fill-opacity="0.66"/>
<circle id="Ellipse 118" cx="49.0116" cy="53.4999" r="2.88462" fill="#24272E" fill-opacity="0.66"/>
<circle id="Ellipse 140" cx="49.0116" cy="69.5257" r="2.88462" fill="#24272E" fill-opacity="0.66"/>
<circle id="Ellipse 162" cx="49.0116" cy="84.9105" r="2.88462" fill="#24272E" fill-opacity="0.66"/>
<circle id="Ellipse 184" cx="49.0116" cy="100.295" r="2.88462" fill="#24272E" fill-opacity="0.66"/>
<circle id="Ellipse 206" cx="49.0116" cy="116.321" r="2.88462" fill="#24272E" fill-opacity="0.66"/>
<circle id="Ellipse 228" cx="49.0116" cy="131.705" r="2.88462" fill="#24272E" fill-opacity="0.66"/>
<circle id="Ellipse 250" cx="49.0116" cy="147.09" r="2.88462" fill="#24272E" fill-opacity="0.66"/>
<circle id="Ellipse 272" cx="49.0116" cy="163.116" r="2.88462" fill="#24272E" fill-opacity="0.66"/>
<circle id="Ellipse 294" cx="49.0116" cy="178.5" r="2.88462" fill="#24272E" fill-opacity="0.66"/>
<circle id="Ellipse 53" cx="60.5526" cy="6.70493" r="2.88462" fill="#24272E" fill-opacity="0.66"/>
<circle id="Ellipse 75" cx="60.5526" cy="22.7303" r="2.88462" fill="#24272E" fill-opacity="0.66"/>
<circle id="Ellipse 97" cx="60.5526" cy="38.1151" r="2.88462" fill="#24272E" fill-opacity="0.66"/>
<circle id="Ellipse 119" cx="60.5526" cy="53.4999" r="2.88462" fill="#24272E" fill-opacity="0.66"/>
<circle id="Ellipse 141" cx="60.5526" cy="69.5257" r="2.88462" fill="#24272E" fill-opacity="0.66"/>
<circle id="Ellipse 163" cx="60.5526" cy="84.9105" r="2.88462" fill="#24272E" fill-opacity="0.66"/>
<circle id="Ellipse 185" cx="60.5526" cy="100.295" r="2.88462" fill="#24272E" fill-opacity="0.66"/>
<circle id="Ellipse 207" cx="60.5526" cy="116.321" r="2.88462" fill="#24272E" fill-opacity="0.66"/>
<circle id="Ellipse 229" cx="60.5526" cy="131.705" r="2.88462" fill="#24272E" fill-opacity="0.66"/>
<circle id="Ellipse 251" cx="60.5526" cy="147.09" r="2.88462" fill="#24272E" fill-opacity="0.66"/>
<circle id="Ellipse 273" cx="60.5526" cy="163.116" r="2.88462" fill="#24272E" fill-opacity="0.66"/>
<circle id="Ellipse 295" cx="60.5526" cy="178.5" r="2.88462" fill="#24272E" fill-opacity="0.66"/>
<circle id="Ellipse 54" cx="71.4491" cy="6.70493" r="2.88462" fill="#24272E" fill-opacity="0.66"/>
<circle id="Ellipse 76" cx="71.4491" cy="22.7303" r="2.88462" fill="#24272E" fill-opacity="0.66"/>
<circle id="Ellipse 98" cx="71.4491" cy="38.1151" r="2.88462" fill="#24272E" fill-opacity="0.66"/>
<circle id="Ellipse 120" cx="71.4491" cy="53.4999" r="2.88462" fill="#24272E" fill-opacity="0.66"/>
<circle id="Ellipse 142" cx="71.4491" cy="69.5257" r="2.88462" fill="#24272E" fill-opacity="0.66"/>
<circle id="Ellipse 164" cx="71.4491" cy="84.9105" r="2.88462" fill="#24272E" fill-opacity="0.66"/>
<circle id="Ellipse 186" cx="71.4491" cy="100.295" r="2.88462" fill="#24272E" fill-opacity="0.66"/>
<circle id="Ellipse 208" cx="71.4491" cy="116.321" r="2.88462" fill="#24272E" fill-opacity="0.66"/>
<circle id="Ellipse 230" cx="71.4491" cy="131.705" r="2.88462" fill="#24272E" fill-opacity="0.66"/>
<circle id="Ellipse 252" cx="71.4491" cy="147.09" r="2.88462" fill="#24272E" fill-opacity="0.66"/>
<circle id="Ellipse 274" cx="71.4491" cy="163.116" r="2.88462" fill="#24272E" fill-opacity="0.66"/>
<circle id="Ellipse 296" cx="71.4491" cy="178.5" r="2.88462" fill="#24272E" fill-opacity="0.66"/>
<circle id="Ellipse 55" cx="82.9862" cy="6.70493" r="2.88462" fill="#24272E" fill-opacity="0.66"/>
<circle id="Ellipse 77" cx="82.9862" cy="22.7303" r="2.88462" fill="#24272E" fill-opacity="0.66"/>
<circle id="Ellipse 99" cx="82.9862" cy="38.1151" r="2.88462" fill="#24272E" fill-opacity="0.66"/>
<circle id="Ellipse 121" cx="82.9862" cy="53.4999" r="2.88462" fill="#24272E" fill-opacity="0.66"/>
<circle id="Ellipse 143" cx="82.9862" cy="69.5257" r="2.88462" fill="#24272E" fill-opacity="0.66"/>
<circle id="Ellipse 165" cx="82.9862" cy="84.9105" r="2.88462" fill="#24272E" fill-opacity="0.66"/>
<circle id="Ellipse 187" cx="82.9862" cy="100.295" r="2.88462" fill="#24272E" fill-opacity="0.66"/>
<circle id="Ellipse 209" cx="82.9862" cy="116.321" r="2.88462" fill="#24272E" fill-opacity="0.66"/>
<circle id="Ellipse 231" cx="82.9862" cy="131.705" r="2.88462" fill="#24272E" fill-opacity="0.66"/>
<circle id="Ellipse 253" cx="82.9862" cy="147.09" r="2.88462" fill="#24272E" fill-opacity="0.66"/>
<circle id="Ellipse 275" cx="82.9862" cy="163.116" r="2.88462" fill="#24272E" fill-opacity="0.66"/>
<circle id="Ellipse 297" cx="82.9862" cy="178.5" r="2.88462" fill="#24272E" fill-opacity="0.66"/>
<circle id="Ellipse 56" cx="93.8846" cy="6.70493" r="2.88462" fill="#24272E" fill-opacity="0.66"/>
<circle id="Ellipse 78" cx="93.8846" cy="22.7304" r="2.88462" fill="#24272E" fill-opacity="0.66"/>
<circle id="Ellipse 100" cx="93.8846" cy="38.1151" r="2.88462" fill="#24272E" fill-opacity="0.66"/>
<circle id="Ellipse 122" cx="93.8846" cy="53.4997" r="2.88462" fill="#24272E" fill-opacity="0.66"/>
<circle id="Ellipse 144" cx="93.8846" cy="69.5258" r="2.88462" fill="#24272E" fill-opacity="0.66"/>
<circle id="Ellipse 166" cx="93.8846" cy="84.9105" r="2.88462" fill="#24272E" fill-opacity="0.66"/>
<circle id="Ellipse 188" cx="93.8846" cy="100.295" r="2.88462" fill="#24272E" fill-opacity="0.66"/>
<circle id="Ellipse 210" cx="93.8846" cy="116.321" r="2.88462" fill="#24272E" fill-opacity="0.66"/>
<circle id="Ellipse 232" cx="93.8846" cy="131.705" r="2.88462" fill="#24272E" fill-opacity="0.66"/>
<circle id="Ellipse 254" cx="93.8846" cy="147.09" r="2.88462" fill="#24272E" fill-opacity="0.66"/>
<circle id="Ellipse 276" cx="93.8846" cy="163.116" r="2.88462" fill="#24272E" fill-opacity="0.66"/>
<circle id="Ellipse 298" cx="93.8846" cy="178.5" r="2.88462" fill="#24272E" fill-opacity="0.66"/>
<circle id="Ellipse 57" cx="105.424" cy="6.70493" r="2.88462" fill="#24272E" fill-opacity="0.66"/>
<circle id="Ellipse 79" cx="105.424" cy="22.7303" r="2.88462" fill="#24272E" fill-opacity="0.66"/>
<circle id="Ellipse 101" cx="105.424" cy="38.1151" r="2.88462" fill="#24272E" fill-opacity="0.66"/>
<circle id="Ellipse 123" cx="105.424" cy="53.4999" r="2.88462" fill="#24272E" fill-opacity="0.66"/>
<circle id="Ellipse 145" cx="105.424" cy="69.5257" r="2.88462" fill="#24272E" fill-opacity="0.66"/>
<circle id="Ellipse 167" cx="105.424" cy="84.9105" r="2.88462" fill="#24272E" fill-opacity="0.66"/>
<circle id="Ellipse 189" cx="105.424" cy="100.295" r="2.88462" fill="#24272E" fill-opacity="0.66"/>
<circle id="Ellipse 211" cx="105.424" cy="116.321" r="2.88462" fill="#24272E" fill-opacity="0.66"/>
<circle id="Ellipse 233" cx="105.424" cy="131.705" r="2.88462" fill="#24272E" fill-opacity="0.66"/>
<circle id="Ellipse 255" cx="105.424" cy="147.09" r="2.88462" fill="#24272E" fill-opacity="0.66"/>
<circle id="Ellipse 277" cx="105.424" cy="163.116" r="2.88462" fill="#24272E" fill-opacity="0.66"/>
<circle id="Ellipse 299" cx="105.424" cy="178.5" r="2.88462" fill="#24272E" fill-opacity="0.66"/>
<circle id="Ellipse 58" cx="116.32" cy="6.70493" r="2.88462" fill="#24272E" fill-opacity="0.66"/>
<circle id="Ellipse 80" cx="116.32" cy="22.7303" r="2.88462" fill="#24272E" fill-opacity="0.66"/>
<circle id="Ellipse 102" cx="116.32" cy="38.1151" r="2.88462" fill="#24272E" fill-opacity="0.66"/>
<circle id="Ellipse 124" cx="116.32" cy="53.4999" r="2.88462" fill="#24272E" fill-opacity="0.66"/>
<circle id="Ellipse 146" cx="116.32" cy="69.5257" r="2.88462" fill="#24272E" fill-opacity="0.66"/>
<circle id="Ellipse 168" cx="116.32" cy="84.9105" r="2.88462" fill="#24272E" fill-opacity="0.66"/>
<circle id="Ellipse 190" cx="116.32" cy="100.295" r="2.88462" fill="#24272E" fill-opacity="0.66"/>
<circle id="Ellipse 212" cx="116.32" cy="116.321" r="2.88462" fill="#24272E" fill-opacity="0.66"/>
<circle id="Ellipse 234" cx="116.32" cy="131.705" r="2.88462" fill="#24272E" fill-opacity="0.66"/>
<circle id="Ellipse 256" cx="116.32" cy="147.09" r="2.88462" fill="#24272E" fill-opacity="0.66"/>
<circle id="Ellipse 278" cx="116.32" cy="163.116" r="2.88462" fill="#24272E" fill-opacity="0.66"/>
<circle id="Ellipse 300" cx="116.32" cy="178.5" r="2.88462" fill="#24272E" fill-opacity="0.66"/>
<circle id="Ellipse 59" cx="127.859" cy="6.70493" r="2.88462" fill="#24272E" fill-opacity="0.66"/>
<circle id="Ellipse 81" cx="127.859" cy="22.7303" r="2.88462" fill="#24272E" fill-opacity="0.66"/>
<circle id="Ellipse 103" cx="127.859" cy="38.1151" r="2.88462" fill="#24272E" fill-opacity="0.66"/>
<circle id="Ellipse 125" cx="127.859" cy="53.4999" r="2.88462" fill="#24272E" fill-opacity="0.66"/>
<circle id="Ellipse 147" cx="127.859" cy="69.5257" r="2.88462" fill="#24272E" fill-opacity="0.66"/>
<circle id="Ellipse 169" cx="127.859" cy="84.9105" r="2.88462" fill="#24272E" fill-opacity="0.66"/>
<circle id="Ellipse 191" cx="127.859" cy="100.295" r="2.88462" fill="#24272E" fill-opacity="0.66"/>
<circle id="Ellipse 213" cx="127.859" cy="116.321" r="2.88462" fill="#24272E" fill-opacity="0.66"/>
<circle id="Ellipse 235" cx="127.859" cy="131.705" r="2.88462" fill="#24272E" fill-opacity="0.66"/>
<circle id="Ellipse 257" cx="127.859" cy="147.09" r="2.88462" fill="#24272E" fill-opacity="0.66"/>
<circle id="Ellipse 279" cx="127.859" cy="163.116" r="2.88462" fill="#24272E" fill-opacity="0.66"/>
<circle id="Ellipse 301" cx="127.859" cy="178.5" r="2.88462" fill="#24272E" fill-opacity="0.66"/>
<circle id="Ellipse 60" cx="138.758" cy="6.70493" r="2.88462" fill="#24272E" fill-opacity="0.66"/>
<circle id="Ellipse 82" cx="138.758" cy="22.7303" r="2.88462" fill="#24272E" fill-opacity="0.66"/>
<circle id="Ellipse 104" cx="138.758" cy="38.1151" r="2.88462" fill="#24272E" fill-opacity="0.66"/>
<circle id="Ellipse 126" cx="138.758" cy="53.4999" r="2.88462" fill="#24272E" fill-opacity="0.66"/>
<circle id="Ellipse 148" cx="138.758" cy="69.5257" r="2.88462" fill="#24272E" fill-opacity="0.66"/>
<circle id="Ellipse 170" cx="138.758" cy="84.9105" r="2.88462" fill="#24272E" fill-opacity="0.66"/>
<circle id="Ellipse 192" cx="138.758" cy="100.295" r="2.88462" fill="#24272E" fill-opacity="0.66"/>
<circle id="Ellipse 214" cx="138.758" cy="116.321" r="2.88462" fill="#24272E" fill-opacity="0.66"/>
<circle id="Ellipse 236" cx="138.758" cy="131.705" r="2.88462" fill="#24272E" fill-opacity="0.66"/>
<circle id="Ellipse 258" cx="138.758" cy="147.09" r="2.88462" fill="#24272E" fill-opacity="0.66"/>
<circle id="Ellipse 280" cx="138.758" cy="163.116" r="2.88462" fill="#24272E" fill-opacity="0.66"/>
<circle id="Ellipse 302" cx="138.758" cy="178.5" r="2.88462" fill="#24272E" fill-opacity="0.66"/>
<circle id="Ellipse 61" cx="150.295" cy="6.70493" r="2.88462" fill="#24272E" fill-opacity="0.66"/>
<circle id="Ellipse 83" cx="150.295" cy="22.7304" r="2.88462" fill="#24272E" fill-opacity="0.66"/>
<circle id="Ellipse 105" cx="150.295" cy="38.1151" r="2.88462" fill="#24272E" fill-opacity="0.66"/>
<circle id="Ellipse 127" cx="150.295" cy="53.4997" r="2.88462" fill="#24272E" fill-opacity="0.66"/>
<circle id="Ellipse 149" cx="150.295" cy="69.5258" r="2.88462" fill="#24272E" fill-opacity="0.66"/>
<circle id="Ellipse 171" cx="150.295" cy="84.9105" r="2.88462" fill="#24272E" fill-opacity="0.66"/>
<circle id="Ellipse 193" cx="150.295" cy="100.295" r="2.88462" fill="#24272E" fill-opacity="0.66"/>
<circle id="Ellipse 215" cx="150.295" cy="116.321" r="2.88462" fill="#24272E" fill-opacity="0.66"/>
<circle id="Ellipse 237" cx="150.295" cy="131.705" r="2.88462" fill="#24272E" fill-opacity="0.66"/>
<circle id="Ellipse 259" cx="150.295" cy="147.09" r="2.88462" fill="#24272E" fill-opacity="0.66"/>
<circle id="Ellipse 281" cx="150.295" cy="163.116" r="2.88462" fill="#24272E" fill-opacity="0.66"/>
<circle id="Ellipse 303" cx="150.295" cy="178.5" r="2.88462" fill="#24272E" fill-opacity="0.66"/>
<circle id="Ellipse 62" cx="161.193" cy="6.70493" r="2.88462" fill="#24272E" fill-opacity="0.66"/>
<circle id="Ellipse 84" cx="161.193" cy="22.7303" r="2.88462" fill="#24272E" fill-opacity="0.66"/>
<circle id="Ellipse 106" cx="161.193" cy="38.1151" r="2.88462" fill="#24272E" fill-opacity="0.66"/>
<circle id="Ellipse 128" cx="161.193" cy="53.4999" r="2.88462" fill="#24272E" fill-opacity="0.66"/>
<circle id="Ellipse 150" cx="161.193" cy="69.5257" r="2.88462" fill="#24272E" fill-opacity="0.66"/>
<circle id="Ellipse 172" cx="161.193" cy="84.9105" r="2.88462" fill="#24272E" fill-opacity="0.66"/>
<circle id="Ellipse 194" cx="161.193" cy="100.295" r="2.88462" fill="#24272E" fill-opacity="0.66"/>
<circle id="Ellipse 216" cx="161.193" cy="116.321" r="2.88462" fill="#24272E" fill-opacity="0.66"/>
<circle id="Ellipse 238" cx="161.193" cy="131.705" r="2.88462" fill="#24272E" fill-opacity="0.66"/>
<circle id="Ellipse 260" cx="161.193" cy="147.09" r="2.88462" fill="#24272E" fill-opacity="0.66"/>
<circle id="Ellipse 282" cx="161.193" cy="163.116" r="2.88462" fill="#24272E" fill-opacity="0.66"/>
<circle id="Ellipse 304" cx="161.193" cy="178.5" r="2.88462" fill="#24272E" fill-opacity="0.66"/>
<circle id="Ellipse 63" cx="172.73" cy="6.70493" r="2.88462" fill="#24272E" fill-opacity="0.66"/>
<circle id="Ellipse 85" cx="172.73" cy="22.7303" r="2.88462" fill="#24272E" fill-opacity="0.66"/>
<circle id="Ellipse 107" cx="172.73" cy="38.1151" r="2.88462" fill="#24272E" fill-opacity="0.66"/>
<circle id="Ellipse 129" cx="172.73" cy="53.4999" r="2.88462" fill="#24272E" fill-opacity="0.66"/>
<circle id="Ellipse 151" cx="172.73" cy="69.5257" r="2.88462" fill="#24272E" fill-opacity="0.66"/>
<circle id="Ellipse 173" cx="172.73" cy="84.9105" r="2.88462" fill="#24272E" fill-opacity="0.66"/>
<circle id="Ellipse 195" cx="172.73" cy="100.295" r="2.88462" fill="#24272E" fill-opacity="0.66"/>
<circle id="Ellipse 217" cx="172.73" cy="116.321" r="2.88462" fill="#24272E" fill-opacity="0.66"/>
<circle id="Ellipse 239" cx="172.73" cy="131.705" r="2.88462" fill="#24272E" fill-opacity="0.66"/>
<circle id="Ellipse 261" cx="172.73" cy="147.09" r="2.88462" fill="#24272E" fill-opacity="0.66"/>
<circle id="Ellipse 283" cx="172.73" cy="163.116" r="2.88462" fill="#24272E" fill-opacity="0.66"/>
<circle id="Ellipse 305" cx="172.73" cy="178.5" r="2.88462" fill="#24272E" fill-opacity="0.66"/>
<circle id="Ellipse 64" cx="183.627" cy="6.70493" r="2.88462" fill="#24272E" fill-opacity="0.66"/>
<circle id="Ellipse 86" cx="183.627" cy="22.7303" r="2.88462" fill="#24272E" fill-opacity="0.66"/>
<circle id="Ellipse 108" cx="183.627" cy="38.1151" r="2.88462" fill="#24272E" fill-opacity="0.66"/>
<circle id="Ellipse 130" cx="183.627" cy="53.4999" r="2.88462" fill="#24272E" fill-opacity="0.66"/>
<circle id="Ellipse 152" cx="183.627" cy="69.5257" r="2.88462" fill="#24272E" fill-opacity="0.66"/>
<circle id="Ellipse 174" cx="183.627" cy="84.9105" r="2.88462" fill="#24272E" fill-opacity="0.66"/>
<circle id="Ellipse 196" cx="183.627" cy="100.295" r="2.88462" fill="#24272E" fill-opacity="0.66"/>
<circle id="Ellipse 218" cx="183.627" cy="116.321" r="2.88462" fill="#24272E" fill-opacity="0.66"/>
<circle id="Ellipse 240" cx="183.627" cy="131.705" r="2.88462" fill="#24272E" fill-opacity="0.66"/>
<circle id="Ellipse 262" cx="183.627" cy="147.09" r="2.88462" fill="#24272E" fill-opacity="0.66"/>
<circle id="Ellipse 284" cx="183.627" cy="163.116" r="2.88462" fill="#24272E" fill-opacity="0.66"/>
<circle id="Ellipse 306" cx="183.627" cy="178.5" r="2.88462" fill="#24272E" fill-opacity="0.66"/>
</g>
</g>
</svg>
