<svg width="28" height="27" viewBox="0 0 28 27" fill="none" xmlns="http://www.w3.org/2000/svg">
<g id="Group 1095">
<rect id="Rectangle 718" x="0.830933" y="0.0422363" width="26.9155" height="26.9155" rx="13.4577" fill="#F0E714"/>
<path id="Vector" d="M7.73328 17.888C9.25393 18.0087 10.6576 17.6466 11.8858 16.6811C10.5991 16.5604 9.72182 15.8966 9.25393 14.6294C9.66333 14.6898 10.0727 14.6898 10.5406 14.5691C9.83878 14.388 9.31241 14.026 8.90301 13.5432C8.4936 13.0001 8.25965 12.3967 8.25965 11.6725C8.66906 11.8536 9.07847 12.0346 9.54636 12.0346C8.90301 11.5519 8.55209 11.0088 8.37663 10.2846C8.20117 9.5605 8.31814 8.83637 8.66906 8.17259C10.1897 10.0433 12.1198 11.0691 14.5177 11.2501C14.5177 10.9484 14.4592 10.707 14.5177 10.4053C14.5762 9.19844 15.4535 8.0519 16.5647 7.75018C17.6175 7.44846 18.5533 7.75018 19.3136 8.47431C19.3721 8.53465 19.4306 8.53465 19.4891 8.53465C20.0739 8.41396 20.6003 8.17259 21.1852 7.87087C20.9512 8.53465 20.5418 9.07775 20.0154 9.43982C20.0154 9.43982 20.0154 9.43982 20.0154 9.50016C20.2494 9.43982 20.5418 9.37947 20.7758 9.31913C21.0097 9.25878 21.3021 9.13809 21.5361 9.07775C21.1852 9.5605 20.8343 10.0433 20.3664 10.4053C20.1909 10.526 20.1324 10.6467 20.1324 10.8881C20.1324 12.2156 19.84 13.4225 19.3136 14.6294C18.6118 16.0777 17.676 17.2846 16.3308 18.1294C15.395 18.7328 14.3422 19.0949 13.231 19.2759C12.4707 19.3966 11.7104 19.3966 10.95 19.2759C9.7803 18.9138 8.72755 18.5518 7.73328 17.888Z" fill="#101C26"/>
</g>
</svg>
