<svg width="58" height="58" viewBox="0 0 58 58" fill="none" xmlns="http://www.w3.org/2000/svg">
<rect width="58" height="58" rx="29" fill="#24272E"/>
<g clip-path="url(#clip0_5_132)">
<path d="M25.2396 15.1589L26.2649 15.9089C27.0619 16.4765 28.0141 16.7814 28.9904 16.7814C29.9667 16.7814 30.919 16.4765 31.716 15.9089L32.7413 15.1782C34.2056 14.1372 35.9539 13.5775 37.7466 13.5756H39.0202C39.8461 13.548 40.6706 13.6607 41.4592 13.9089C46.3245 15.6461 49.6741 22.005 49.4321 36.415C49.3875 39.3253 48.7125 42.5303 46.108 43.7867C45.219 44.213 44.2461 44.4321 43.2614 44.4277C42.1539 44.447 41.0656 44.1346 40.1347 43.5303C38.2624 42.2996 36.8933 40.2419 34.9128 39.2035C33.7185 38.5799 32.3927 38.2546 31.0473 38.2548H26.9463C25.603 38.2553 24.2795 38.5807 23.0872 39.2035C21.1067 40.2419 19.7375 42.2996 17.8653 43.5303C16.9344 44.1346 15.8461 44.447 14.7386 44.4277C13.7539 44.4321 12.781 44.213 11.892 43.7867C9.28745 42.5047 8.61243 39.2996 8.56785 36.415C8.32586 22.005 11.6755 15.6461 16.5407 13.9089C17.3293 13.6604 18.1539 13.5477 18.9797 13.5756H20.2534C22.0374 13.5766 23.778 14.1293 25.2396 15.1589Z" stroke="#F0E714" stroke-width="5" stroke-miterlimit="133.33" stroke-linecap="round"/>
<path d="M18.7804 24.7143V29.8572M16.2222 27.2804H21.3333" stroke="#F0E714" stroke-width="5" stroke-miterlimit="133.33" stroke-linecap="round"/>
<path d="M42.8595 27.0341C42.8595 27.3573 42.7654 27.6732 42.589 27.9419C42.4127 28.2105 42.162 28.4198 41.8689 28.5431C41.5757 28.6665 41.2532 28.6984 40.9422 28.6349C40.6312 28.5713 40.3457 28.4152 40.1219 28.1862C39.8981 27.9572 39.746 27.6656 39.685 27.3485C39.6239 27.0313 39.6566 26.7028 39.7789 26.4046C39.9012 26.1064 40.1076 25.8519 40.3719 25.6733C40.6363 25.4947 40.9467 25.4001 41.2639 25.4014C41.474 25.4014 41.682 25.4437 41.8761 25.5258C42.0701 25.608 42.2463 25.7284 42.3945 25.8801C42.5428 26.0317 42.6602 26.2118 42.74 26.4098C42.8198 26.6079 42.8604 26.82 42.8595 27.0341Z" fill="#F0E714"/>
<path d="M36.4638 27.0341C36.4638 27.357 36.3698 27.6727 36.1937 27.9412C36.0177 28.2097 35.7674 28.4189 35.4747 28.5425C35.1819 28.6661 34.8597 28.6984 34.5489 28.6354C34.2381 28.5724 33.9526 28.4169 33.7285 28.1886C33.5045 27.9602 33.3519 27.6693 33.29 27.3526C33.2282 27.0359 33.2599 26.7076 33.3812 26.4093C33.5025 26.111 33.7078 25.856 33.9713 25.6766C34.2348 25.4972 34.5446 25.4014 34.8615 25.4014C35.2864 25.4014 35.694 25.5734 35.9945 25.8796C36.2949 26.1858 36.4638 26.6011 36.4638 27.0341Z" fill="#F0E714"/>
<path d="M38.0594 22.1429C38.3766 22.1415 38.687 22.2361 38.9514 22.4147C39.2157 22.5933 39.4221 22.8478 39.5444 23.146C39.6667 23.4442 39.6994 23.7727 39.6383 24.0899C39.5773 24.407 39.4252 24.6986 39.2014 24.9276C38.9776 25.1566 38.6921 25.3128 38.3811 25.3763C38.0701 25.4399 37.7476 25.4079 37.4545 25.2846C37.1613 25.1612 36.9107 24.9519 36.7343 24.6833C36.558 24.4147 36.4638 24.0987 36.4638 23.7755C36.4638 23.3437 36.6317 22.9294 36.9307 22.6235C37.2298 22.3175 37.6356 22.1447 38.0594 22.1429Z" fill="#F0E714"/>
<path d="M38.0594 28.6668C38.3766 28.6655 38.687 28.7601 38.9514 28.9386C39.2157 29.1172 39.4221 29.3717 39.5444 29.67C39.6667 29.9682 39.6994 30.2967 39.6383 30.6138C39.5773 30.931 39.4252 31.2225 39.2014 31.4515C38.9776 31.6805 38.6921 31.8367 38.3811 31.9002C38.0701 31.9638 37.7476 31.9319 37.4545 31.8085C37.1613 31.6851 36.9107 31.4759 36.7343 31.2072C36.558 30.9386 36.4638 30.6227 36.4638 30.2995C36.4638 29.8676 36.6317 29.4534 36.9307 29.1474C37.2298 28.8414 37.6356 28.6686 38.0594 28.6668Z" fill="#F0E714"/>
</g>
<defs>
<clipPath id="clip0_5_132">
<rect width="46" height="36" fill="white" transform="translate(6 11)"/>
</clipPath>
</defs>
</svg>
