<svg width="84" height="33" viewBox="0 0 84 33" fill="none" xmlns="http://www.w3.org/2000/svg">
<g clip-path="url(#clip0_1_79)">
<path d="M13.5 0H9.13002C4.76002 0 0.990017 3.26 0.990017 9.57C0.916999 11.2526 1.35574 12.9178 2.24836 14.346C3.14098 15.7742 4.44556 16.8983 5.99002 17.57L0.0800162 28.18C0.0330078 28.235 0.00314135 28.3025 -0.00589174 28.3743C-0.0149248 28.446 -0.0027283 28.5189 0.0291911 28.5838C0.0611105 28.6487 0.111353 28.7028 0.173704 28.7394C0.236056 28.7761 0.307783 28.7937 0.380016 28.79H3.13002C3.23456 28.7926 3.33774 28.7659 3.42787 28.7129C3.51801 28.6598 3.5915 28.5826 3.64002 28.49L9.03002 18.11H10.96V28.49C10.965 28.5697 10.9995 28.6446 11.0569 28.7001C11.1142 28.7556 11.1902 28.7877 11.27 28.79H13.71C13.7506 28.7948 13.7917 28.7904 13.8303 28.777C13.8689 28.7636 13.9039 28.7417 13.9328 28.7128C13.9617 28.6839 13.9837 28.6489 13.997 28.6103C14.0104 28.5717 14.0148 28.5306 14.01 28.49V0.41C13.91 0.11 13.81 0 13.5 0ZM10.96 15.67H9.33002C2.33002 15.67 2.82002 2.45 9.03002 2.45H11.03V15.67H10.96Z" fill="#B9B9B9"/>
<path d="M28.15 9.57012H25.71C25.6694 9.56529 25.6283 9.56973 25.5897 9.5831C25.5511 9.59647 25.5161 9.61843 25.4872 9.64731C25.4583 9.67619 25.4363 9.71125 25.423 9.74984C25.4096 9.78843 25.4052 9.82956 25.41 9.87012V17.2001H20.93V9.87012C20.9348 9.82956 20.9304 9.78843 20.917 9.74984C20.9036 9.71125 20.8817 9.67619 20.8528 9.64731C20.8239 9.61843 20.7889 9.59647 20.7503 9.5831C20.7117 9.56973 20.6705 9.56529 20.63 9.57012H18.29C18.08 9.57012 17.98 9.67012 17.98 9.87012V28.4901C17.98 28.6901 18.08 28.7901 18.29 28.7901H20.73C20.7705 28.7949 20.8117 28.7905 20.8503 28.7771C20.8889 28.7638 20.9239 28.7418 20.9528 28.7129C20.9817 28.684 21.0036 28.649 21.017 28.6104C21.0304 28.5718 21.0348 28.5307 21.03 28.4901V19.5401H25.51V28.5401C25.5052 28.5807 25.5096 28.6218 25.523 28.6604C25.5363 28.699 25.5583 28.734 25.5872 28.7629C25.6161 28.7918 25.6511 28.8138 25.6897 28.8271C25.7283 28.8405 25.7694 28.8449 25.81 28.8401H28.26C28.3005 28.8449 28.3417 28.8405 28.3803 28.8271C28.4189 28.8138 28.4539 28.7918 28.4828 28.7629C28.5117 28.734 28.5336 28.699 28.547 28.6604C28.5604 28.6218 28.5648 28.5807 28.56 28.5401V9.87012C28.46 9.67012 28.36 9.57012 28.15 9.57012ZM83.09 26.2501C83.09 26.1501 82.98 26.1501 82.88 26.1501C81.88 26.1501 75.66 29.1001 75.66 19.3301C75.66 15.0601 77.29 9.06012 81.15 12.6201C81.1918 12.6576 81.2409 12.6859 81.2943 12.7031C81.3478 12.7203 81.4042 12.7261 81.46 12.7201C81.56 12.7201 81.66 12.6201 81.76 12.4101L82.76 10.6901C82.7975 10.6484 82.8257 10.5992 82.843 10.5458C82.8602 10.4923 82.866 10.4359 82.86 10.3801C82.86 10.1801 82.66 10.0701 82.46 9.97012C75.76 6.62012 72.3 12.7801 72.3 20.0401C72.3 29.4001 79.12 30.7301 82.98 27.8801C83.052 27.8407 83.1106 27.7805 83.148 27.7074C83.1855 27.6343 83.2001 27.5516 83.19 27.4701L83.09 26.2501ZM66.4 18.2501L71.08 9.78012C71.099 9.75455 71.1116 9.7248 71.1168 9.69336C71.122 9.66191 71.1196 9.62968 71.1098 9.59935C71.1001 9.56902 71.0832 9.54147 71.0606 9.51899C71.038 9.49651 71.0104 9.47975 70.98 9.47012H68.64C67.93 9.47012 67.73 9.68012 67.52 10.1901C67.31 10.7001 63.86 17.9201 63.45 18.1901V9.78012C63.45 9.68012 63.35 9.47012 63.25 9.47012H60.71C60.6 9.47012 60.5 9.58012 60.5 9.78012V28.4901C60.5 28.5901 60.6 28.7901 60.71 28.7901H63.25C63.45 28.7901 63.45 28.6901 63.45 28.4901V18.7801C63.76 18.9901 68.03 27.8401 68.13 28.1401C68.2334 28.3448 68.3947 28.5146 68.5938 28.6284C68.7929 28.7422 69.0211 28.795 69.25 28.7801H71.79C72 28.7801 72 28.6801 71.9 28.4801L66.4 18.2001V18.2501ZM44.12 26.3501H43.62C43.01 26.3501 42.9 26.1501 42.9 25.6401V9.78012C42.9 9.58012 42.8 9.47012 42.7 9.47012H34.85C34.8081 9.46533 34.7657 9.47005 34.7259 9.48394C34.6861 9.49783 34.65 9.52051 34.6202 9.55031C34.5904 9.58011 34.5677 9.61626 34.5538 9.65605C34.5399 9.69584 34.5352 9.73825 34.54 9.78012C34.54 14.0501 34.64 21.1701 31.8 26.3601H30.98C30.78 26.3601 30.68 26.4601 30.68 26.6701V32.2601C30.6845 32.3392 30.7172 32.414 30.7723 32.4709C30.8274 32.5278 30.9011 32.563 30.98 32.5701H32.85C32.9308 32.5729 33.0114 32.559 33.0867 32.5294C33.162 32.4997 33.2303 32.4549 33.2875 32.3977C33.3447 32.3404 33.3896 32.2721 33.4192 32.1968C33.4489 32.1215 33.4628 32.041 33.46 31.9601V28.7801H41.7V32.2401C41.7068 32.3201 41.7416 32.395 41.7983 32.4518C41.8551 32.5085 41.93 32.5433 42.01 32.5501H44.01C44.1577 32.5349 44.2937 32.4627 44.3889 32.3487C44.4842 32.2348 44.5312 32.0882 44.52 31.9401V26.6601C44.42 26.4501 44.32 26.3501 44.11 26.3501H44.12ZM39.85 26.3501H34.16C35.78 23.7101 37.31 19.4301 37.31 11.9101H39.85V26.3501ZM52.06 9.06012C47.89 9.06012 45.96 14.2501 45.96 19.9401C45.96 29.3001 52.47 30.7301 56.96 27.9401C57.17 27.8401 57.17 27.7401 57.17 27.6301L56.85 26.3501C56.85 26.2501 56.75 26.1501 56.55 26.1501C54.92 26.1501 49.22 29.0001 49.22 19.7401C51.9262 19.9807 54.6452 20.0476 57.36 19.9401C57.26 15.2601 56.75 9.06012 52.07 9.06012H52.06ZM49.31 17.6001C49.31 10.1801 54.2 8.75012 54.2 17.4001C52.5674 17.3603 50.9339 17.4271 49.31 17.6001Z" fill="#B9B9B9"/>
</g>
<defs>
<clipPath id="clip0_1_79">
<rect width="83.19" height="32.55" fill="white"/>
</clipPath>
</defs>
</svg>
