<svg width="184" height="50" viewBox="0 0 184 50" fill="none" xmlns="http://www.w3.org/2000/svg">
<path d="M17.7228 1.23755H32.302C45.6189 1.23755 48.7624 4.40587 48.7624 17.7227V32.3019C48.7624 45.6187 45.5941 48.7623 32.2773 48.7623H17.6981C4.38124 48.7623 1.23767 45.594 1.23767 32.2772V17.6979C1.23767 4.40587 4.40599 1.23755 17.7228 1.23755Z" fill="#B9B9B9"/>
<mask id="mask0_1_92" style="mask-type:luminance" maskUnits="userSpaceOnUse" x="1" y="1" width="48" height="48">
<path d="M17.7228 1.23755H32.302C45.6189 1.23755 48.7624 4.40587 48.7624 17.7227V32.3019C48.7624 45.6187 45.5941 48.7623 32.2773 48.7623H17.6981C4.38124 48.7623 1.23767 45.594 1.23767 32.2772V17.6979C1.23767 4.40587 4.40599 1.23755 17.7228 1.23755Z" fill="white"/>
</mask>
<g mask="url(#mask0_1_92)">
<path d="M0 0H50V50H0V0Z" fill="#B9B9B9"/>
</g>
<path fill-rule="evenodd" clip-rule="evenodd" d="M40.1485 17.599C40.3713 16.8565 40.1485 16.3367 39.1089 16.3367H35.6435C34.7524 16.3367 34.3564 16.807 34.1336 17.3268C34.1336 17.3268 32.3762 21.6337 29.8762 24.406C29.0594 25.2228 28.7128 25.4703 28.2673 25.4703C28.0445 25.4703 27.7227 25.2228 27.7227 24.4802V17.599C27.7227 16.708 27.4752 16.3367 26.7326 16.3367H21.2871C20.7425 16.3367 20.396 16.7575 20.396 17.1287C20.396 17.9703 21.6336 18.1684 21.7821 20.4951V25.5941C21.7821 26.708 21.5841 26.906 21.1386 26.906C19.9752 26.906 17.1039 22.599 15.4208 17.6486C15.0742 16.7327 14.7524 16.3367 13.8614 16.3367H10.396C9.40591 16.3367 9.20789 16.807 9.20789 17.3268C9.20789 18.2426 10.3713 22.7971 14.6782 28.8119C17.5495 32.9208 21.5841 35.1486 25.2475 35.1486C27.4505 35.1486 27.7227 34.6535 27.7227 33.8119V30.6931C27.7227 29.703 27.9208 29.505 28.6386 29.505C29.1584 29.505 30.0247 29.7525 32.0792 31.7327C34.4307 34.0842 34.8267 35.1486 36.1386 35.1486H39.6039C40.594 35.1486 41.0891 34.6535 40.792 33.6882C40.4703 32.7228 39.3564 31.3119 37.8713 29.6288C37.0544 28.6634 35.8415 27.6486 35.495 27.1288C34.9752 26.4604 35.1237 26.1634 35.495 25.5941C35.495 25.5693 39.7277 19.6287 40.1485 17.599Z" fill="#101C26"/>
<path d="M61.2642 34V19.4545H67.0881C68.1581 19.4545 69.0507 19.6132 69.7656 19.9304C70.4806 20.2476 71.018 20.688 71.3778 21.2514C71.7377 21.8101 71.9176 22.4541 71.9176 23.1832C71.9176 23.7514 71.804 24.2509 71.5767 24.6818C71.3494 25.108 71.0369 25.4583 70.6392 25.733C70.2462 26.0028 69.7964 26.1946 69.2898 26.3082V26.4503C69.8438 26.474 70.3622 26.6302 70.8452 26.919C71.3329 27.2079 71.7282 27.6127 72.0312 28.1335C72.3343 28.6496 72.4858 29.2652 72.4858 29.9801C72.4858 30.7519 72.294 31.4408 71.9105 32.0469C71.5317 32.6482 70.9706 33.1241 70.2273 33.4744C69.4839 33.8248 68.5677 34 67.4787 34H61.2642ZM64.3395 31.4858H66.8466C67.7036 31.4858 68.3286 31.3224 68.7216 30.9957C69.1146 30.6643 69.3111 30.224 69.3111 29.6747C69.3111 29.2723 69.214 28.9171 69.0199 28.6094C68.8258 28.3016 68.5488 28.0601 68.1889 27.8849C67.8338 27.7098 67.41 27.6222 66.9176 27.6222H64.3395V31.4858ZM64.3395 25.5412H66.6193C67.0407 25.5412 67.4148 25.4678 67.7415 25.321C68.0729 25.1695 68.3333 24.9564 68.5227 24.6818C68.7169 24.4072 68.8139 24.0781 68.8139 23.6946C68.8139 23.169 68.6269 22.7453 68.2528 22.4233C67.8835 22.1013 67.358 21.9403 66.6761 21.9403H64.3395V25.5412ZM83.2866 34L78.6133 27.7997H77.5621V34H74.4869V19.4545H77.5621V25.2642H78.18L83.0096 19.4545H86.8377L81.163 26.2017L87.1005 34H83.2866ZM101.193 26.7273C101.193 28.3134 100.893 29.6629 100.291 30.7756C99.6946 31.8883 98.8802 32.7382 97.848 33.3253C96.8205 33.9077 95.6652 34.1989 94.3821 34.1989C93.0895 34.1989 91.9295 33.9053 90.902 33.3182C89.8745 32.7311 89.0625 31.8812 88.4659 30.7685C87.8693 29.6558 87.571 28.3087 87.571 26.7273C87.571 25.1411 87.8693 23.7917 88.4659 22.679C89.0625 21.5663 89.8745 20.7187 90.902 20.1364C91.9295 19.5492 93.0895 19.2557 94.3821 19.2557C95.6652 19.2557 96.8205 19.5492 97.848 20.1364C98.8802 20.7187 99.6946 21.5663 100.291 22.679C100.893 23.7917 101.193 25.1411 101.193 26.7273ZM98.0753 26.7273C98.0753 25.6998 97.9214 24.8333 97.6136 24.1278C97.3106 23.4223 96.8821 22.8873 96.3281 22.5227C95.7741 22.1581 95.1255 21.9759 94.3821 21.9759C93.6387 21.9759 92.9901 22.1581 92.4361 22.5227C91.8821 22.8873 91.4512 23.4223 91.1435 24.1278C90.8404 24.8333 90.6889 25.6998 90.6889 26.7273C90.6889 27.7547 90.8404 28.6212 91.1435 29.3267C91.4512 30.0322 91.8821 30.5672 92.4361 30.9318C92.9901 31.2964 93.6387 31.4787 94.3821 31.4787C95.1255 31.4787 95.7741 31.2964 96.3281 30.9318C96.8821 30.5672 97.3106 30.0322 97.6136 29.3267C97.9214 28.6212 98.0753 27.7547 98.0753 26.7273ZM103.471 34V19.4545H106.547V25.456H112.789V19.4545H115.858V34H112.789V27.9915H106.547V34H103.471ZM117.839 21.9901V19.4545H129.785V21.9901H125.332V34H122.292V21.9901H117.839ZM132.482 34H129.187L134.208 19.4545H138.171L143.185 34H139.89L136.246 22.7784H136.133L132.482 34ZM132.276 28.2827H140.06V30.6832H132.276V28.2827ZM153.736 34L149.062 27.7997H148.011V34H144.936V19.4545H148.011V25.2642H148.629L153.459 19.4545H157.287L151.612 26.2017L157.55 34H153.736ZM158.542 21.9901V19.4545H170.488V21.9901H166.035V34H162.995V21.9901H158.542ZM172.456 34V19.4545H182.257V21.9901H175.531V25.456H181.752V27.9915H175.531V31.4645H182.285V34H172.456Z" fill="#B9B9B9"/>
</svg>
