<svg width="133" height="50" viewBox="0 0 133 50" fill="none" xmlns="http://www.w3.org/2000/svg">
<path d="M59.2642 19.4545H63.0568L67.0625 29.2273H67.233L71.2386 19.4545H75.0312V34H72.0483V24.5327H71.9276L68.1634 33.929H66.1321L62.3679 24.4972H62.2472V34H59.2642V19.4545ZM80.619 34.206C79.9229 34.206 79.3027 34.0852 78.7582 33.8438C78.2137 33.5975 77.7828 33.2353 77.4656 32.7571C77.1531 32.2741 76.9968 31.6728 76.9968 30.9531C76.9968 30.3471 77.1081 29.8381 77.3306 29.4261C77.5531 29.0142 77.8562 28.6828 78.2397 28.4318C78.6232 28.1809 79.0588 27.9915 79.5465 27.8636C80.0389 27.7358 80.555 27.6458 81.0948 27.5938C81.7293 27.5275 82.2406 27.4659 82.6289 27.4091C83.0172 27.3475 83.2989 27.2576 83.4741 27.1392C83.6493 27.0208 83.7369 26.8456 83.7369 26.6136V26.571C83.7369 26.1212 83.5948 25.7732 83.3107 25.527C83.0314 25.2808 82.6336 25.1577 82.1175 25.1577C81.573 25.1577 81.1398 25.2784 80.8178 25.5199C80.4959 25.7566 80.2828 26.0549 80.1786 26.4148L77.3803 26.1875C77.5224 25.5246 77.8017 24.9517 78.2184 24.4688C78.6351 23.9811 79.1725 23.607 79.8306 23.3466C80.4935 23.0814 81.2605 22.9489 82.1317 22.9489C82.7378 22.9489 83.3178 23.0199 83.8718 23.1619C84.4305 23.304 84.9253 23.5241 85.3562 23.8224C85.7918 24.1207 86.1351 24.5043 86.386 24.973C86.637 25.437 86.7624 25.9934 86.7624 26.642V34H83.8931V32.4872H83.8079C83.6327 32.8281 83.3983 33.1288 83.1048 33.3892C82.8112 33.6449 82.4585 33.8461 82.0465 33.9929C81.6346 34.1349 81.1587 34.206 80.619 34.206ZM81.4854 32.1179C81.9305 32.1179 82.3235 32.0303 82.6644 31.8551C83.0053 31.6752 83.2728 31.4337 83.467 31.1307C83.6611 30.8277 83.7582 30.4844 83.7582 30.1009V28.9432C83.6635 29.0047 83.5333 29.0616 83.3675 29.1136C83.2066 29.161 83.0243 29.206 82.8207 29.2486C82.6171 29.2865 82.4135 29.322 82.2099 29.3551C82.0063 29.3835 81.8216 29.4096 81.6559 29.4332C81.3008 29.4853 80.9906 29.5682 80.7255 29.6818C80.4603 29.7955 80.2544 29.9493 80.1076 30.1435C79.9608 30.3329 79.8874 30.5696 79.8874 30.8537C79.8874 31.2656 80.0366 31.5805 80.3349 31.7983C80.6379 32.0114 81.0214 32.1179 81.4854 32.1179ZM89.1097 34V23.0909H92.1353V34H89.1097ZM90.6296 21.6847C90.1798 21.6847 89.7939 21.5355 89.4719 21.2372C89.1547 20.9342 88.9961 20.572 88.9961 20.1506C88.9961 19.7339 89.1547 19.3764 89.4719 19.0781C89.7939 18.7751 90.1798 18.6236 90.6296 18.6236C91.0794 18.6236 91.4629 18.7751 91.7802 19.0781C92.1022 19.3764 92.2631 19.7339 92.2631 20.1506C92.2631 20.572 92.1022 20.9342 91.7802 21.2372C91.4629 21.5355 91.0794 21.6847 90.6296 21.6847ZM97.5845 19.4545V34H94.5589V19.4545H97.5845ZM101.777 34.1847C101.308 34.1847 100.905 34.0189 100.569 33.6875C100.238 33.3513 100.072 32.9489 100.072 32.4801C100.072 32.0161 100.238 31.6184 100.569 31.2869C100.905 30.9555 101.308 30.7898 101.777 30.7898C102.231 30.7898 102.629 30.9555 102.97 31.2869C103.311 31.6184 103.481 32.0161 103.481 32.4801C103.481 32.7926 103.401 33.0791 103.24 33.3395C103.083 33.5952 102.877 33.8011 102.622 33.9574C102.366 34.1089 102.084 34.1847 101.777 34.1847ZM106.022 34V19.4545H111.761C112.859 19.4545 113.797 19.651 114.573 20.044C115.354 20.4323 115.949 20.9839 116.356 21.6989C116.768 22.4091 116.974 23.2448 116.974 24.206C116.974 25.1719 116.765 26.0028 116.349 26.6989C115.932 27.3902 115.328 27.9205 114.538 28.2898C113.752 28.6591 112.8 28.8438 111.683 28.8438H107.84V26.3722H111.185C111.772 26.3722 112.26 26.2917 112.648 26.1307C113.037 25.9697 113.326 25.7282 113.515 25.4062C113.709 25.0843 113.806 24.6842 113.806 24.206C113.806 23.723 113.709 23.3158 113.515 22.9844C113.326 22.6529 113.034 22.402 112.641 22.2315C112.253 22.0563 111.763 21.9688 111.171 21.9688H109.097V34H106.022ZM113.877 27.3807L117.492 34H114.097L110.56 27.3807H113.877ZM128.131 19.4545H131.207V28.9006C131.207 29.9612 130.953 30.8892 130.447 31.6847C129.945 32.4801 129.242 33.1004 128.337 33.5455C127.433 33.9858 126.379 34.206 125.177 34.206C123.969 34.206 122.914 33.9858 122.009 33.5455C121.105 33.1004 120.402 32.4801 119.9 31.6847C119.398 30.8892 119.147 29.9612 119.147 28.9006V19.4545H122.222V28.6378C122.222 29.1918 122.343 29.6842 122.585 30.1151C122.831 30.5459 123.176 30.8845 123.621 31.1307C124.067 31.3769 124.585 31.5 125.177 31.5C125.773 31.5 126.292 31.3769 126.732 31.1307C127.177 30.8845 127.521 30.5459 127.762 30.1151C128.008 29.6842 128.131 29.1918 128.131 28.6378V19.4545Z" fill="#B9B9B9"/>
<g clip-path="url(#clip0_2_83)">
<path d="M24.1375 10.9703C27.9547 10.9703 31.5516 12.6624 34.1875 15.3077V15.3156C34.1875 14.0452 35.0422 13.0843 36.2234 13.0843H36.5234C38.3875 13.0843 38.7609 14.8421 38.7609 15.3968L38.7688 35.139C38.6391 36.4328 40.1047 37.1015 40.9188 36.2702C44.0828 33.0156 47.875 19.5218 38.9484 11.7093C30.6234 4.41713 19.45 5.62181 13.5094 9.71556C7.19532 14.0781 3.15939 23.714 7.0797 32.7702C11.3609 42.6437 23.6 45.589 30.8844 42.6515C34.5719 41.1624 36.2719 46.1406 32.4391 47.7702C26.6625 50.2343 10.5641 49.9827 3.04532 36.9624C-2.03436 28.1671 -1.76561 12.6953 11.7125 4.67963C22.0141 -1.45631 35.6063 0.24369 43.8 8.79838C52.3625 17.7499 51.8672 34.4984 43.5078 41.0093C39.7219 43.9702 34.1 41.0906 34.1406 36.7765L34.0984 35.3702C31.4625 37.9812 27.9547 39.5124 24.1375 39.5124C16.5859 39.5124 9.93751 32.8624 9.93751 25.3187C9.93751 17.6937 16.5859 10.9734 24.1375 10.9734V10.9703ZM33.6359 24.7734C33.35 19.2468 29.2484 15.9187 24.2922 15.9187H24.1047C18.3922 15.9187 15.2188 20.4187 15.2188 25.5203C15.2188 31.2406 19.0516 34.8531 24.0813 34.8531C29.6953 34.8531 33.3813 30.7452 33.65 25.8859L33.6359 24.7734Z" fill="#B9B9B9"/>
</g>
<defs>
<clipPath id="clip0_2_83">
<rect width="50" height="50" fill="white"/>
</clipPath>
</defs>
</svg>
