<svg width="195" height="38" viewBox="0 0 195 38" fill="none" xmlns="http://www.w3.org/2000/svg">
<path d="M87.4031 19.0971C87.4031 26.4206 82.9168 29.9247 77.2969 29.9247H73.8837V25.4748H77.0423C80.4554 25.4748 82.6925 23.6439 82.6925 19.0304C82.6925 14.4835 80.5767 12.2404 76.9453 12.2404C73.4714 12.2404 71.0101 14.3562 71.0101 18.9334V37.4058H66.2753V8.421H70.9494V10.9127H71.6103C73.0956 8.92419 75.4296 7.78444 77.891 7.85113C83.0684 7.85113 87.397 11.6402 87.397 19.091L87.4031 19.0971ZM56.648 17.1692L53.5561 16.8539C51.0947 16.6357 49.7974 15.9688 49.7974 14.5199C49.7974 12.8466 51.4706 11.8645 53.8411 11.8645C56.2721 11.8645 57.8484 13.0346 57.9757 14.6411H62.4619C62.274 10.4398 59.0487 7.85113 53.8714 7.85113C48.6637 7.85113 45.1232 10.6278 45.1232 14.6714C45.1232 18.0846 47.2693 20.2611 52.1314 20.7339L55.29 21.0492C57.2179 21.2371 58.5092 21.6191 58.5092 23.4803C58.5092 25.1232 57.3088 26.3236 54.1199 26.3236C51.216 26.3236 49.761 24.9959 49.2881 23.2317H44.426C44.8686 27.2754 48.3121 30.3976 54.1199 30.3976C59.6429 30.3976 63.1834 27.5239 63.1834 23.2317C63.1531 19.5033 60.6917 17.5451 56.648 17.1692ZM105.494 23.262C104.796 24.9352 103.032 26.1963 100.504 26.1963C97.0909 26.1963 94.5689 23.9531 94.5689 19.1577C94.5689 14.5805 96.903 12.0524 100.571 12.0524C103.857 12.0524 105.688 13.9803 105.876 16.9449H97.4789V20.3217H110.519V18.1089C110.519 11.9191 106.385 7.91175 100.571 7.91175C95.1388 7.91175 89.9008 11.6038 89.9008 19.1516C89.9008 26.7297 95.1449 30.4218 100.54 30.4218C105.5 30.4218 109.095 27.3602 110.204 23.2196L105.494 23.262ZM31.7311 7.85113C26.6144 7.85113 22.795 10.5368 22.3221 14.6411H27.3419C27.6874 13.1558 29.0454 12.0221 31.7008 12.0221C35.0776 12.0221 36.1871 13.7924 36.1871 15.9688V23.3287C34.2592 25.5051 32.0524 26.5176 29.8093 26.5176C27.5056 26.5176 25.8929 25.3778 25.8929 23.4257C25.8929 21.4978 27.1539 20.2974 29.5244 20.2974H33.2528V16.9509H29.4031C24.0378 16.9509 21.0369 19.6063 21.0369 23.7409C21.0369 27.5603 23.9105 30.4339 28.6756 30.4339C31.3613 30.4339 33.6954 29.3609 35.4656 28.0999H36.1264V29.9004H40.8006V15.5626C40.9279 10.2579 37.3268 7.85719 31.7372 7.85719L31.7311 7.85113ZM0 29.8944H4.67419V0.497314H0V29.8944ZM19.6425 8.421H13.9256L7.13556 17.3874V20.1641L14.1135 29.8883H19.9214L11.7128 18.7758L19.6425 8.421ZM188.823 8.421L185.003 16.9146C184.058 18.9334 183.172 20.9583 182.918 22.3163H182.257C181.972 20.9583 181.057 19.0304 180.111 16.9812L176.291 8.42706H171.084L180.117 27.7179L175.667 37.4422H180.656L194.012 8.42706L188.823 8.421ZM170.065 8.421H164.348L157.528 17.3571V20.1338L164.536 29.858H170.344L162.135 18.7454L170.065 8.421ZM140.735 17.1692L137.643 16.8539C135.212 16.6357 133.915 15.9688 133.915 14.5199C133.915 12.8466 135.588 11.8645 137.922 11.8645C140.383 11.8645 141.929 13.0346 142.056 14.6775H146.543C146.355 10.4459 143.13 7.85719 137.952 7.85719C132.744 7.85719 129.234 10.6338 129.234 14.6775C129.234 18.0907 131.38 20.2671 136.212 20.74L139.401 21.0553C141.299 21.2432 142.59 21.6251 142.59 23.4863C142.59 25.1292 141.39 26.3296 138.231 26.3296C135.327 26.3296 133.872 25.0019 133.369 23.2377H128.507C128.98 27.2814 132.393 30.4036 138.231 30.4036C143.724 30.4036 147.264 27.53 147.264 23.2377C147.264 19.5093 144.772 17.5511 140.729 17.1753L140.735 17.1692ZM150.429 29.8944H155.103V0.497314H150.429V29.8944ZM119.546 10.9188H118.886V8.42706H114.211V29.9307H118.886V18.6909C118.886 14.8412 120.656 12.6284 124.16 12.6284H127.094V7.86325H125.391C122.141 7.86325 120.783 9.12425 119.546 10.9248V10.9188Z" fill="#B9B9B9"/>
</svg>
