<svg width="165" height="70" viewBox="0 0 165 70" fill="none" xmlns="http://www.w3.org/2000/svg">
<path d="M94.3764 34.9844H88.777C88.6747 34.2599 88.4659 33.6165 88.1506 33.054C87.8352 32.483 87.4304 31.9972 86.9361 31.5966C86.4418 31.196 85.8707 30.8892 85.223 30.6761C84.5838 30.4631 83.8892 30.3565 83.1392 30.3565C81.7841 30.3565 80.6037 30.6932 79.598 31.3665C78.5923 32.0312 77.8125 33.0028 77.2585 34.2812C76.7045 35.5511 76.4276 37.0937 76.4276 38.9091C76.4276 40.7756 76.7045 42.3437 77.2585 43.6136C77.821 44.8835 78.6051 45.8423 79.6108 46.4901C80.6165 47.1378 81.7798 47.4616 83.1009 47.4616C83.8423 47.4616 84.5284 47.3636 85.1591 47.1676C85.7983 46.9716 86.3651 46.6861 86.8594 46.3111C87.3537 45.9276 87.7628 45.4631 88.0866 44.9176C88.419 44.3722 88.6491 43.75 88.777 43.0511L94.3764 43.0767C94.2315 44.2784 93.8693 45.4375 93.2898 46.554C92.7188 47.6619 91.9474 48.6548 90.9759 49.5327C90.0128 50.402 88.8622 51.0923 87.5241 51.6037C86.1946 52.1065 84.6903 52.358 83.0114 52.358C80.6761 52.358 78.5881 51.8295 76.7472 50.7727C74.9148 49.7159 73.4659 48.1861 72.4006 46.1832C71.3438 44.1804 70.8153 41.7557 70.8153 38.9091C70.8153 36.054 71.3523 33.625 72.4261 31.6222C73.5 29.6193 74.9574 28.0937 76.7983 27.0455C78.6392 25.9886 80.7102 25.4602 83.0114 25.4602C84.5284 25.4602 85.9347 25.6733 87.2301 26.0994C88.5341 26.5256 89.6889 27.1477 90.6946 27.9659C91.7003 28.7756 92.5185 29.7685 93.1491 30.9446C93.7884 32.1207 94.1974 33.4673 94.3764 34.9844ZM98.3459 52V25.8182H115.719V30.3821H103.881V35.4957H108.138C110.21 35.4957 111.995 35.8324 113.495 36.5057C115.004 37.1705 116.167 38.1122 116.985 39.331C117.803 40.5497 118.212 41.9858 118.212 43.6392C118.212 45.2841 117.803 46.7372 116.985 47.9986C116.167 49.2514 115.004 50.2315 113.495 50.9389C111.995 51.6463 110.21 52 108.138 52H98.3459ZM103.881 47.5511H108.138C109.127 47.5511 109.962 47.3722 110.644 47.0142C111.326 46.6477 111.842 46.1662 112.191 45.5696C112.549 44.9645 112.728 44.304 112.728 43.5881C112.728 42.5483 112.332 41.6705 111.539 40.9545C110.755 40.2301 109.621 39.8679 108.138 39.8679H103.881V47.5511ZM121.795 52V25.8182H139.437V30.3821H127.331V36.6207H138.529V41.1847H127.331V47.4361H139.488V52H121.795ZM143.838 52V25.8182H154.168C156.153 25.8182 157.845 26.1974 159.243 26.956C160.641 27.706 161.706 28.75 162.439 30.0881C163.18 31.4176 163.551 32.9517 163.551 34.6903C163.551 36.429 163.176 37.9631 162.426 39.2926C161.676 40.6222 160.589 41.6577 159.166 42.3991C157.751 43.1406 156.038 43.5114 154.027 43.5114H147.443V39.0753H153.132C154.197 39.0753 155.075 38.892 155.766 38.5256C156.464 38.1506 156.984 37.6349 157.325 36.9787C157.675 36.3139 157.849 35.5511 157.849 34.6903C157.849 33.821 157.675 33.0625 157.325 32.4148C156.984 31.7585 156.464 31.2514 155.766 30.8935C155.067 30.527 154.18 30.3438 153.107 30.3438H149.374V52H143.838Z" fill="#B9B9B9"/>
<path d="M28.5 64C12.7591 64 0 51.2409 0 35.5C0 19.7591 12.7591 7 28.5 7C44.2409 7 57 19.7591 57 35.5C57 51.2409 44.2409 64 28.5 64ZM40.4005 20.1243L20.8299 31.2553L11.5033 25.9525L10.5414 27.8638L20.8299 33.7864L42.0838 21.6526L40.4005 20.1243ZM36.122 17.6875L20.8299 26.4299L14.0505 22.561L12.6576 24.2318L20.8299 28.8666L38.3806 18.8346L36.1238 17.6875H36.122ZM43.5747 23.229L20.8299 36.2232L9.77194 29.9176L9.24291 32.0194L20.8299 38.6118L44.8234 24.9016L43.5747 23.229ZM47.0357 29.3921L45.9776 26.7167L20.8299 41.0486L8.90625 34.3119V35.6015C8.90625 38.2111 9.42816 40.7939 10.4452 43.1986C11.4096 45.5275 12.8318 47.6391 14.6276 49.408C16.4228 51.15 18.5259 52.5434 20.8299 53.5173C23.2667 54.5683 25.8157 55.0938 28.4768 55.0938C31.106 55.0938 33.6532 54.5683 36.122 53.5173C38.4532 52.5677 40.5764 51.1718 42.3724 49.408C44.1478 47.6223 45.5672 45.515 46.5547 43.1986L47.0357 41.9089C47.7411 39.8712 48.0938 37.7675 48.0938 35.6033C48.0938 33.4355 47.7411 31.3675 47.0357 29.3921Z" fill="#B9B9B9"/>
</svg>
