<svg width="540" height="315" viewBox="0 0 540 315" fill="none" xmlns="http://www.w3.org/2000/svg">
<path d="M203.166 89.2598C202.5 46.3149 161.147 17.4491 140.923 2.53516C140.201 2.00257 140.523 0.871422 141.415 0.771508C219.671 -7.99654 271.868 60.0834 281.002 97.7516C281.02 97.8282 281.029 97.9033 281.029 97.9821V269.367C281.029 269.92 280.581 270.367 280.029 270.367H265.682C265.13 270.367 264.682 269.92 264.682 269.367V144.033C264.682 143.481 264.234 143.033 263.682 143.033H250.626C250.073 143.033 249.626 143.481 249.626 144.033V222.907C249.626 223.46 249.178 223.907 248.626 223.907H232.558C232.005 223.907 231.558 223.46 231.558 222.907V195.225C231.558 194.672 231.11 194.225 230.558 194.225H219.652C219.1 194.225 218.652 194.672 218.652 195.225V266.786C218.652 267.339 218.205 267.786 217.652 267.786H204.166C203.613 267.786 203.166 267.339 203.166 266.786V214.443C203.452 191.213 203.854 133.655 203.166 89.2598Z" fill="url(#paint0_linear_50_9)"/>
<path d="M76.6915 263.484C75.9734 297.235 33.0657 304.819 5.17418 313.858C4.56282 314.057 3.93582 313.665 3.87695 313.025C0.875534 280.395 -3.14625 206.661 3.99038 162.821C11.0589 119.401 53.5448 86.7065 75.2617 74.9621C75.9196 74.6064 76.6964 75.0556 76.7007 75.8035C76.9867 126.089 77.3725 231.478 76.6915 263.484Z" fill="url(#paint1_linear_50_9)"/>
<path d="M185.582 67.4986C94.6707 17.1548 26.4552 86.7965 4.83333 128.817C4.35304 129.751 2.95187 129.443 2.96565 128.393C3.49707 87.9046 31.8447 10.9656 121.145 3.2375C121.253 3.22812 121.362 3.23538 121.468 3.2617C143.746 8.8137 179.323 36.3745 187.053 66.4448C187.268 67.2805 186.337 67.9167 185.582 67.4986Z" fill="url(#paint2_linear_50_9)"/>
<rect x="80.0144" y="154.035" width="120.452" height="17.2074" rx="1" fill="url(#paint3_linear_50_9)"/>
<path d="M540 40.3951V10C540 4.47715 535.523 0 530 0H279C273.477 0 269 4.47716 269 10V40.3951C269 45.9179 273.477 50.3951 279 50.3951H361.742C367.265 50.3951 371.742 54.8722 371.742 60.3951V306.059C371.742 310.445 375.297 314 379.683 314C384.069 314 387.625 310.445 387.625 306.059V252.336C387.625 248.772 390.513 245.884 394.077 245.884C397.641 245.884 400.529 248.772 400.529 252.336V287.611C400.529 291.175 403.418 294.064 406.982 294.064C410.545 294.064 413.434 291.175 413.434 287.611V285.315C413.434 281.889 416.212 279.111 419.638 279.111C423.065 279.111 425.843 281.889 425.843 285.315V306.555C425.843 310.667 429.176 314 433.288 314C437.399 314 440.733 310.667 440.733 306.555V57.9504C440.733 53.7777 444.115 50.3951 448.288 50.3951C452.461 50.3951 455.843 53.7777 455.843 57.9504V63.4007C455.843 67.345 459.041 70.5425 462.985 70.5425C466.929 70.5425 470.127 67.345 470.127 63.4007V58.3089C470.127 53.9382 473.67 50.3951 478.041 50.3951C482.411 50.3951 485.954 53.9382 485.954 58.3089V81.0363C485.954 84.9806 489.152 88.1781 493.096 88.1781C497.04 88.1781 500.238 84.9806 500.238 81.0363V60.3951C500.238 54.8722 504.715 50.3951 510.238 50.3951H530C535.523 50.3951 540 45.9179 540 40.3951Z" fill="url(#paint4_linear_50_9)"/>
<defs>
<linearGradient id="paint0_linear_50_9" x1="209.989" y1="0" x2="209.989" y2="270.367" gradientUnits="userSpaceOnUse">
<stop stop-color="white"/>
<stop offset="1" stop-color="#F0E714"/>
</linearGradient>
<linearGradient id="paint1_linear_50_9" x1="38.5358" y1="74.2034" x2="38.5358" y2="314.246" gradientUnits="userSpaceOnUse">
<stop stop-color="white"/>
<stop offset="1" stop-color="#F0E714"/>
</linearGradient>
<linearGradient id="paint2_linear_50_9" x1="95.2592" y1="3.22314" x2="95.2592" y2="132.526" gradientUnits="userSpaceOnUse">
<stop stop-color="white"/>
<stop offset="1" stop-color="#F0E714"/>
</linearGradient>
<linearGradient id="paint3_linear_50_9" x1="140.24" y1="154.035" x2="140.24" y2="171.243" gradientUnits="userSpaceOnUse">
<stop stop-color="white"/>
<stop offset="1" stop-color="#F0E714"/>
</linearGradient>
<linearGradient id="paint4_linear_50_9" x1="404.5" y1="0" x2="404.5" y2="314" gradientUnits="userSpaceOnUse">
<stop stop-color="white"/>
<stop offset="1" stop-color="#F1E927"/>
</linearGradient>
</defs>
</svg>
